# xmcd
#
# Track frame offsets:
#	150
#	26710
#	48184
#	75560
#	94195
#	123859
#	154609
#	177211
#	204579
#	219783
#	236820
#	261161
#	291521
#	312257
#
# Disc length: 4589
#
# Revision: 1
# Processed by: cddbd v1.5.1PL0 Copyright (c) Steve Scherf et al.
# Submitted via: CDex 1.51
# Normalized: r0:DSETVAR1,TDELIM( - )
#
DISCID=bc11eb0e
DTITLE=Various Artist - Sabor Dominicano Salsa Top 100 CD 1
DYEAR=2004
DGENRE=Salsa
TTITLE0=Richie Ray Y Bobby Cruz - Yo Soy La Salsa
TTITLE1=El Gran Combo - Vagabundo
TTITLE2=Marc Anthony and La India - Vivir Lo Nuestro
TTITLE3=Fania All Stars - Anacaona
TTITLE4=Papaito - Es Mi Veracruz
TTITLE5=Willie Colón - Gitana
TTITLE6=Grupo Niche - Hagamos Lo Que Diga El Corazon
TTITLE7=Fania All Stars - Aguanilé
TTITLE8=El Gran Combo - Brujería
TTITLE9=Oscar D' Leóon - Llorarás
TTITLE10=Henry Fiol Y Saoco - Siempre Seré Guajiro
TTITLE11=Richie Ray y Bobby Cruz - Sonido Bestial
TTITLE12=Cheo Feliciano - Sálome
TTITLE13=Eddie Palmieri - Vamonos Pal Monte
EXTD=YEAR: 2004
EXTT0=
EXTT1=
EXTT2=
EXTT3=
EXTT4=
EXTT5=
EXTT6=
EXTT7=
EXTT8=
EXTT9=
EXTT10=
EXTT11=
EXTT12=
EXTT13=
PLAYORDER=
